<?xml version="1.0" encoding="UTF-8" standalone="no"?>
<!-- Created with Inkscape (http://www.inkscape.org/) -->

<svg
   width="512"
   height="512"
   viewBox="0 0 135.46666 135.46667"
   version="1.1"
   id="svg5"
   inkscape:version="1.1.2 (0a00cf5339, 2022-02-04)"
   sodipodi:docname="icon.svg"
   xmlns:inkscape="http://www.inkscape.org/namespaces/inkscape"
   xmlns:sodipodi="http://sodipodi.sourceforge.net/DTD/sodipodi-0.dtd"
   xmlns="http://www.w3.org/2000/svg"
   xmlns:svg="http://www.w3.org/2000/svg">
  <sodipodi:namedview
     id="namedview7"
     pagecolor="#505050"
     bordercolor="#ffffff"
     borderopacity="1"
     inkscape:pageshadow="0"
     inkscape:pageopacity="0"
     inkscape:pagecheckerboard="1"
     inkscape:document-units="px"
     showgrid="false"
     units="px"
     width="512px"
     inkscape:zoom="0.45291836"
     inkscape:cx="-143.51372"
     inkscape:cy="440.47673"
     inkscape:window-width="1838"
     inkscape:window-height="1236"
     inkscape:window-x="1130"
     inkscape:window-y="141"
     inkscape:window-maximized="0"
     inkscape:current-layer="layer1"
     showguides="false" />
  <defs
     id="defs2" />
  <g
     inkscape:label="Layer 1"
     inkscape:groupmode="layer"
     id="layer1">
    <path
       style="fill:#1976d2;fill-opacity:1;stroke-width:0.650832"
       d="m 115.96365,67.733335 c 0,-4.074217 -0.51221,-8.029331 -1.46764,-11.810023 l 12.97503,-7.490438 -13.15401,-22.782419 -13.0056,7.509315 C 95.659601,27.668689 88.671608,23.553471 80.886994,21.342589 V 6.3499956 H 54.580315 V 21.342589 c -7.785266,2.210882 -14.772612,6.3261 -20.424449,11.817181 L 21.150267,25.650455 7.9962743,48.432874 20.971286,55.923312 c -0.956074,3.781344 -1.46828,7.736458 -1.46828,11.810023 0,4.073565 0.512206,8.029328 1.467631,11.81002 L 7.9956224,87.033793 21.149615,109.81622 34.155216,102.3069 c 5.651835,5.49108 12.639181,9.60629 20.424449,11.81717 v 14.9926 h 26.307329 v -14.9926 c 7.784614,-2.21088 14.772607,-6.32609 20.424436,-11.81717 l 13.0056,7.50932 13.15401,-22.782427 -12.97503,-7.489789 c 0.95543,-3.781341 1.46764,-7.736455 1.46764,-11.810669 z"
       id="path12"
       sodipodi:nodetypes="sccccccccccccsccccccccccccs" />
    <g
       aria-label="BB"
       id="text5258"
       style="font-size:52.9167px;line-height:1.25;fill:#ffffff;stroke-width:0.264583">
      <path
         d="m 47.140261,63.379594 q 2.35128,0 3.565676,-1.033529 1.214397,-1.03353 1.214397,-3.048912 0,-1.989543 -1.214397,-3.023073 -1.214396,-1.059367 -3.565676,-1.059367 h -5.503543 v 8.164881 z m 0.335897,16.872365 q 2.997235,0 4.495853,-1.266073 1.524455,-1.266073 1.524455,-3.824058 0,-2.506309 -1.498617,-3.746544 -1.498617,-1.266073 -4.521691,-1.266073 h -5.83944 v 10.102748 z m 9.250087,-13.87513 q 3.203941,0.930176 4.960941,3.436485 1.757,2.506308 1.757,6.149499 0,5.581058 -3.772382,8.31991 -3.772382,2.738853 -11.472175,2.738853 h -16.51063 v -38.57648 h 14.934498 q 8.03569,0 11.627204,2.428794 3.617353,2.428794 3.617353,7.777308 0,2.816367 -1.31775,4.805911 -1.31775,1.963705 -3.824059,2.91972 z"
         style="font-weight:bold;-inkscape-font-specification:'sans-serif Bold'"
         id="path15322" />
      <path
         d="m 87.473742,63.379594 q 2.351279,0 3.565676,-1.033529 1.214397,-1.03353 1.214397,-3.048912 0,-1.989543 -1.214397,-3.023073 -1.214397,-1.059367 -3.565676,-1.059367 h -5.503543 v 8.164881 z m 0.335897,16.872365 q 2.997235,0 4.495853,-1.266073 1.524455,-1.266073 1.524455,-3.824058 0,-2.506309 -1.498617,-3.746544 -1.498618,-1.266073 -4.521691,-1.266073 h -5.83944 v 10.102748 z m 9.250087,-13.87513 q 3.203944,0.930176 4.960944,3.436485 1.757,2.506308 1.757,6.149499 0,5.581058 -3.77239,8.31991 -3.772377,2.738853 -11.47217,2.738853 H 72.02248 v -38.57648 h 14.934498 q 8.03569,0 11.627204,2.428794 3.617348,2.428794 3.617348,7.777308 0,2.816367 -1.31775,4.805911 -1.317745,1.963705 -3.824054,2.91972 z"
         style="font-weight:bold;-inkscape-font-specification:'sans-serif Bold'"
         id="path15324" />
    </g>
  </g>
</svg>
