<?xml version="1.0" encoding="UTF-8"?>
<svg width="512" height="512" version="1.1" viewBox="0 0 135.47 135.47" xmlns="http://www.w3.org/2000/svg">
 <path transform="scale(.26458)" d="m206.29 24v56.664c-29.425 8.3561-55.832 23.91-77.193 44.664l-49.156-28.381-49.715 86.105 49.039 28.311c-3.6135 14.292-5.5488 29.241-5.5488 44.637s1.9358 30.347 5.5469 44.637l-49.041 28.311 49.717 86.105 49.154-28.381c21.361 20.754 47.771 36.308 77.195 44.664v56.664h99.43v-56.664c29.422-8.3561 55.834-23.91 77.195-44.664l49.154 28.381 49.717-86.105-49.041-28.309c3.6111-14.292 5.5469-29.24 5.5469-44.639 0-15.399-1.9358-30.347-5.5469-44.637l49.041-28.311-49.717-86.105-49.154 28.381c-21.361-20.754-47.773-36.308-77.195-44.664v-56.664zm-86.518 159.1h56.445c20.247 0 34.896 3.0599 43.945 9.1797 9.1146 6.1198 13.672 15.918 13.672 29.395 0 7.0964-1.6602 13.151-4.9805 18.164-3.3203 4.9479-8.138 8.6263-14.453 11.035 8.0729 2.3438 14.323 6.6732 18.75 12.988 4.4271 6.3151 6.6406 14.062 6.6406 23.242 0 14.062-4.7526 24.544-14.258 31.445s-23.958 10.352-43.359 10.352h-62.402zm152.44 0h56.445c20.247 0 34.896 3.0599 43.945 9.1797 9.1146 6.1198 13.672 15.918 13.672 29.395 0 7.0964-1.6602 13.151-4.9805 18.164-3.3203 4.9479-8.138 8.6263-14.453 11.035 8.0729 2.3438 14.323 6.6732 18.75 12.988 4.4271 6.3151 6.6406 14.062 6.6406 23.242 0 14.062-4.7526 24.544-14.258 31.445-9.5052 6.901-23.958 10.352-43.359 10.352h-62.402zm-114.84 25.586v30.859h20.801c5.9245 0 10.417-1.3021 13.477-3.9062 3.0599-2.6042 4.5898-6.4453 4.5898-11.523 0-5.013-1.53-8.8216-4.5898-11.426-3.0599-2.6693-7.5521-4.0039-13.477-4.0039zm152.44 0v30.859h20.801c5.9245 0 10.417-1.3021 13.477-3.9062s4.5898-6.4453 4.5898-11.523c0-5.013-1.5299-8.8216-4.5898-11.426-3.0599-2.6693-7.5521-4.0039-13.477-4.0039zm-152.44 56.445v38.184h22.07c7.5521 0 13.216-1.595 16.992-4.7852 3.8411-3.1901 5.7617-8.0078 5.7617-14.453 0-6.3151-1.888-11.035-5.6641-14.16-3.776-3.1901-9.4726-4.7852-17.09-4.7852zm152.44 0v38.184h22.07c7.5521 0 13.216-1.595 16.992-4.7852 3.8412-3.1901 5.7617-8.0078 5.7617-14.453 0-6.3151-1.888-11.035-5.6641-14.16-3.776-3.1901-9.4726-4.7852-17.09-4.7852z" stroke-width="2.4598"/>
</svg>
